<svg xmlns="http://www.w3.org/2000/svg" width="1280" height="720" viewBox="0 0 1280 720"><rect width="1280" height="720" fill="white"/><g font-family="Arial Unicode MS,Arial,sans-serif"><path d="M 132 560.0 L 782 624.0 L 946 520.0 L 296 456.0 Z" fill="#F5F4F1" fill-opacity="1" stroke="#A4AAA9" stroke-width="0.8"/><path d="M 296 456.0 L 946 520.0 L 946 140.0 L 296 76.0 Z" fill="#FAFAF8" fill-opacity="1" stroke="#A4AAA9" stroke-width="0.8"/><path d="M 132 560.0 L 296 456.0 L 296 76.0 L 132 180.0 Z" fill="#FCFCFB" fill-opacity="1" stroke="#A4AAA9" stroke-width="0.8"/><path d="M 132 560.0 L 296 456.0 L 946 520.0" fill="none" fill-opacity="1" stroke="#D3D5D3" stroke-width="0.9"/><text x="84.0" y="567.48" text-anchor="middle" font-size="22" font-weight="400" fill="#6C7478"><tspan x="84.0" dy="0">1.580</tspan></text><path d="M 132 496.6666666666664 L 296 392.6666666666664 L 946 456.6666666666664" fill="none" fill-opacity="1" stroke="#D3D5D3" stroke-width="0.9"/><text x="84.0" y="504.1466666666664" text-anchor="middle" font-size="22" font-weight="400" fill="#6C7478"><tspan x="84.0" dy="0">1.590</tspan></text><path d="M 132 433.33333333333286 L 296 329.33333333333286 L 946 393.33333333333286" fill="none" fill-opacity="1" stroke="#D3D5D3" stroke-width="0.9"/><text x="84.0" y="440.8133333333329" text-anchor="middle" font-size="22" font-weight="400" fill="#6C7478"><tspan x="84.0" dy="0">1.600</tspan></text><path d="M 132 369.9999999999993 L 296 265.9999999999993 L 946 329.9999999999993" fill="none" fill-opacity="1" stroke="#D3D5D3" stroke-width="0.9"/><text x="84.0" y="377.47999999999934" text-anchor="middle" font-size="22" font-weight="400" fill="#6C7478"><tspan x="84.0" dy="0">1.610</tspan></text><path d="M 132 306.6666666666657 L 296 202.66666666666572 L 946 266.6666666666657" fill="none" fill-opacity="1" stroke="#D3D5D3" stroke-width="0.9"/><text x="84.0" y="314.14666666666574" text-anchor="middle" font-size="22" font-weight="400" fill="#6C7478"><tspan x="84.0" dy="0">1.620</tspan></text><path d="M 132 243.33333333333218 L 296 139.33333333333218 L 946 203.33333333333218" fill="none" fill-opacity="1" stroke="#D3D5D3" stroke-width="0.9"/><text x="84.0" y="250.81333333333217" text-anchor="middle" font-size="22" font-weight="400" fill="#6C7478"><tspan x="84.0" dy="0">1.630</tspan></text><path d="M 132 179.99999999999858 L 296 75.99999999999858 L 946 139.99999999999858" fill="none" fill-opacity="1" stroke="#D3D5D3" stroke-width="0.9"/><text x="84.0" y="187.47999999999857" text-anchor="middle" font-size="22" font-weight="400" fill="#6C7478"><tspan x="84.0" dy="0">1.640</tspan></text><path d="M 213.25 568.0 L 377.25 464.0 L 377.25 84.0" fill="none" fill-opacity="1" stroke="#D3D5D3" stroke-width="0.85"/><text x="213.25" y="599.14" text-anchor="middle" font-size="21" font-weight="400" fill="#394248"><tspan x="213.25" dy="0">baseline</tspan></text><path d="M 375.75 584.0 L 539.75 480.0 L 539.75 100.0" fill="none" fill-opacity="1" stroke="#D3D5D3" stroke-width="0.85"/><text x="375.75" y="613.54" text-anchor="middle" font-size="21" font-weight="400" fill="#394248"><tspan x="375.75" dy="0">depth</tspan><tspan x="375.75" dy="25.2">9</tspan></text><path d="M 538.25 600.0 L 702.25 496.0 L 702.25 116.0" fill="none" fill-opacity="1" stroke="#D3D5D3" stroke-width="0.85"/><text x="538.25" y="629.54" text-anchor="middle" font-size="21" font-weight="400" fill="#394248"><tspan x="538.25" dy="0">width</tspan><tspan x="538.25" dy="25.2">288</tspan></text><path d="M 700.75 616.0 L 864.75 512.0 L 864.75 132.0" fill="none" fill-opacity="1" stroke="#D3D5D3" stroke-width="0.85"/><text x="700.75" y="645.54" text-anchor="middle" font-size="21" font-weight="400" fill="#394248"><tspan x="700.75" dy="0">width</tspan><tspan x="700.75" dy="25.2">256</tspan></text><path d="M 197.60000000000002 518.4 L 847.6 582.4" fill="none" fill-opacity="1" stroke="#bfc8ce" stroke-width="1"/><path d="M 309.725 529.4399999999999 L 326.945 518.52 L 326.945 359.33714644737324 L 309.725 370.2571464473732 Z" fill="#81939f" fill-opacity="0.7" stroke="#7E919D" stroke-width="1"/><path d="M 247.97500000000002 364.1771464473733 L 309.725 370.2571464473732 L 326.945 359.33714644737324 L 265.195 353.2571464473733 Z" fill="#aab6be" fill-opacity="0.84" stroke="#7E919D" stroke-width="1"/><path d="M 247.97500000000002 523.36 L 309.725 529.4399999999999 L 309.725 370.2571464473732 L 247.97500000000002 364.1771464473733 Z" fill="#7E919D" fill-opacity="0.56" stroke="#7E919D" stroke-width="1"/><text x="278.85" y="355.53714644737323" text-anchor="middle" font-size="23" font-weight="400" fill="#394248"><tspan x="278.85" dy="0">1.605</tspan></text><path d="M 472.225 545.4399999999999 L 489.445 534.52 L 489.445 444.60204520936725 L 472.225 455.5220452093672 Z" fill="#81939f" fill-opacity="0.7" stroke="#7E919D" stroke-width="1"/><path d="M 410.475 449.4420452093673 L 472.225 455.5220452093672 L 489.445 444.60204520936725 L 427.695 438.5220452093673 Z" fill="#aab6be" fill-opacity="0.84" stroke="#7E919D" stroke-width="1"/><path d="M 410.475 539.36 L 472.225 545.4399999999999 L 472.225 455.5220452093672 L 410.475 449.4420452093673 Z" fill="#7E919D" fill-opacity="0.56" stroke="#7E919D" stroke-width="1"/><text x="441.35" y="440.80204520936724" text-anchor="middle" font-size="23" font-weight="400" fill="#394248"><tspan x="441.35" dy="0">1.594</tspan></text><path d="M 634.725 561.4399999999999 L 651.945 550.52 L 651.945 316.90222516953975 L 634.725 327.8222251695397 Z" fill="#81939f" fill-opacity="0.7" stroke="#7E919D" stroke-width="1"/><path d="M 572.975 321.7422251695398 L 634.725 327.8222251695397 L 651.945 316.90222516953975 L 590.195 310.8222251695398 Z" fill="#aab6be" fill-opacity="0.84" stroke="#7E919D" stroke-width="1"/><path d="M 572.975 555.36 L 634.725 561.4399999999999 L 634.725 327.8222251695397 L 572.975 321.7422251695398 Z" fill="#7E919D" fill-opacity="0.56" stroke="#7E919D" stroke-width="1"/><text x="603.85" y="313.10222516953974" text-anchor="middle" font-size="23" font-weight="400" fill="#394248"><tspan x="603.85" dy="0">1.617</tspan></text><path d="M 797.225 577.4399999999999 L 814.445 566.52 L 814.445 263.6300357746521 L 797.225 274.55003577465203 Z" fill="#81939f" fill-opacity="0.7" stroke="#7E919D" stroke-width="1"/><path d="M 735.475 268.4700357746521 L 797.225 274.55003577465203 L 814.445 263.6300357746521 L 752.695 257.55003577465214 Z" fill="#aab6be" fill-opacity="0.84" stroke="#7E919D" stroke-width="1"/><path d="M 735.475 571.36 L 797.225 577.4399999999999 L 797.225 274.55003577465203 L 735.475 268.4700357746521 Z" fill="#7E919D" fill-opacity="0.56" stroke="#7E919D" stroke-width="1"/><text x="766.35" y="259.83003577465206" text-anchor="middle" font-size="23" font-weight="400" fill="#394248"><tspan x="766.35" dy="0">1.628</tspan></text><path d="M 132 180.0 L 296 76.0 L 946 140.0 L 782 244.0 L 132 180.0" fill="none" fill-opacity="1" stroke="#A4AAA9" stroke-width="1"/><path d="M 782 624.0 L 782 244.0" fill="none" fill-opacity="1" stroke="#A4AAA9" stroke-width="1"/><path d="M 946 520.0 L 946 140.0" fill="none" fill-opacity="1" stroke="#A4AAA9" stroke-width="1"/><path d="M 132 560.0 L 782 624.0" fill="none" fill-opacity="1" stroke="#A4AAA9" stroke-width="1.2"/><text x="36" y="84.16" text-anchor="start" font-size="24" font-weight="400" fill="#394248"><tspan x="36" dy="0">Validation BPB</tspan></text><path d="M 1003 242 L 1022 242" fill="none" fill-opacity="1" stroke="#7E919D" stroke-width="5"/><text x="1030" y="248.98" text-anchor="start" font-size="22" font-weight="700" fill="#7E919D"><tspan x="1030" dy="0">20M targets, seed 17</tspan></text><text x="550.0" y="708.82" text-anchor="middle" font-size="23" font-weight="400" fill="#394248"><tspan x="550.0" dy="0">Model shape changed away from width 320 / depth 8</tspan></text></g></svg>